<?xml version="1.0" encoding="UTF-8" standalone="no"?>
<!-- Generator: Adobe Illustrator 17.1.0, SVG Export Plug-In . SVG Version: 6.00 Build 0)  -->
<svg xmlns:dc="http://purl.org/dc/elements/1.1/" xmlns:cc="http://creativecommons.org/ns#" xmlns:rdf="http://www.w3.org/1999/02/22-rdf-syntax-ns#" xmlns:svg="http://www.w3.org/2000/svg" xmlns="http://www.w3.org/2000/svg" xmlns:sodipodi="http://sodipodi.sourceforge.net/DTD/sodipodi-0.dtd" xmlns:inkscape="http://www.inkscape.org/namespaces/inkscape" version="1.1" id="Layer_1" x="0px" y="0px" viewBox="0 0 128 128" enable-background="new 0 0 128 128" xml:space="preserve" inkscape:version="0.48.4 r9939" width="100%" height="100%" sodipodi:docname="icon-play.svg"><metadata id="metadata4382"><rdf:RDF><cc:Work rdf:about=""><dc:format>image/svg+xml</dc:format><dc:type rdf:resource="http://purl.org/dc/dcmitype/StillImage"/></cc:Work></rdf:RDF></metadata><defs id="defs4380"/><sodipodi:namedview pagecolor="#ffffff" bordercolor="#666666" borderopacity="1" objecttolerance="10" gridtolerance="10" guidetolerance="10" inkscape:pageopacity="0" inkscape:pageshadow="2" inkscape:window-width="1920" inkscape:window-height="1017" id="namedview4378" showgrid="false" inkscape:zoom="0.4609375" inkscape:cx="306.83435" inkscape:cy="-392.13794" inkscape:window-x="-4" inkscape:window-y="-4" inkscape:window-maximized="1" inkscape:current-layer="Layer_1"/>



































<path fill="#FFFFFF" d="M64,6c31.981,0,58,26.019,58,58s-26.019,58-58,58C32.019,122,6,95.981,6,64S32.019,6,64,6 M64,0  C28.654,0,0,28.654,0,64s28.654,64,64,64c35.346,0,64-28.654,64-64S99.346,0,64,0L64,0z" id="path4362"/>
<polygon fill="#FFFFFF" stroke="#FFFFFF" stroke-width="4" stroke-linecap="round" stroke-linejoin="round" stroke-miterlimit="10" points="  49.283,63.954 49.283,39.863 70.147,51.909 91.011,63.954 70.147,76 49.283,88.046 " id="polygon4364"/>
<g id="g4366">
</g>
<g id="g4368">
</g>
<g id="g4370">
</g>
<g id="g4372">
</g>
<g id="g4374">
</g>
<g id="g4376">
</g>
</svg>